<svg xmlns="http://www.w3.org/2000/svg" viewBox="0 0 600 600">
  <defs>
    <linearGradient id="bg" x1="0%" y1="0%" x2="100%" y2="100%">
      <stop offset="0%" stop-color="#0f766e"/>
      <stop offset="100%" stop-color="#facc15"/>
    </linearGradient>
  </defs>
  <rect width="600" height="600" rx="42" fill="url(#bg)"/>
  <path d="M224 142h152l-18 300c-4 52-48 92-100 92h-16c-52 0-96-40-100-92z" fill="#ecfeff"/>
  <path d="M238 164h124l-14 218c-3 38-34 68-72 68h-8c-38 0-69-30-72-68z" fill="#fde68a"/>
  <circle cx="248" cy="396" r="18" fill="#92400e"/>
  <circle cx="294" cy="430" r="18" fill="#92400e"/>
  <circle cx="318" cy="366" r="18" fill="#92400e"/>
  <path d="M324 110c16 18 24 38 24 60m0 0 56-44" fill="none" stroke="#ffffff" stroke-width="14" stroke-linecap="round"/>
</svg>
