<svg xmlns="http://www.w3.org/2000/svg" viewBox="0 0 600 600">
  <defs>
    <linearGradient id="bg" x1="0%" y1="0%" x2="100%" y2="100%">
      <stop offset="0%" stop-color="#1d4ed8"/>
      <stop offset="100%" stop-color="#fb7185"/>
    </linearGradient>
  </defs>
  <rect width="600" height="600" rx="42" fill="url(#bg)"/>
  <rect x="128" y="208" width="344" height="220" rx="40" fill="#1f2937"/>
  <rect x="156" y="236" width="288" height="146" rx="28" fill="#111827"/>
  <ellipse cx="300" cy="284" rx="122" ry="52" fill="#f97316"/>
  <ellipse cx="300" cy="294" rx="112" ry="42" fill="#fb7185"/>
  <circle cx="246" cy="266" r="14" fill="#86efac"/>
  <circle cx="338" cy="252" r="14" fill="#fde68a"/>
  <circle cx="382" cy="306" r="12" fill="#93c5fd"/>
  <circle cx="218" cy="312" r="12" fill="#fca5a5"/>
  <rect x="148" y="420" width="18" height="62" rx="9" fill="#cbd5e1"/>
  <rect x="434" y="420" width="18" height="62" rx="9" fill="#cbd5e1"/>
  <path d="M232 198c0-28 18-50 40-62-8 18-7 40 4 62m72-26c0-34 18-58 42-74-8 22-6 48 4 74" fill="none" stroke="#ffffff" stroke-linecap="round" stroke-width="12" opacity="0.75"/>
</svg>
