<svg xmlns="http://www.w3.org/2000/svg" viewBox="0 0 800 520">
  <defs>
    <linearGradient id="bg" x1="0%" y1="0%" x2="100%" y2="100%">
      <stop offset="0%" stop-color="#0f172a"/>
      <stop offset="50%" stop-color="#334155"/>
      <stop offset="100%" stop-color="#f97316"/>
    </linearGradient>
  </defs>
  <rect width="800" height="520" rx="36" fill="url(#bg)"/>
  <circle cx="112" cy="98" r="66" fill="#ffffff" opacity="0.08"/>
  <circle cx="680" cy="420" r="124" fill="#ffffff" opacity="0.08"/>
  <rect x="150" y="198" width="500" height="168" rx="30" fill="#fff7ed"/>
  <rect x="188" y="168" width="424" height="44" rx="16" fill="#ef4444"/>
  <path d="M222 168h40v44h-40zm84 0h40v44h-40zm84 0h40v44h-40zm84 0h40v44h-40zm84 0h40v44h-40z" fill="#fff"/>
  <circle cx="278" cy="322" r="34" fill="#fdba74"/>
  <circle cx="400" cy="322" r="34" fill="#fbbf24"/>
  <circle cx="522" cy="322" r="34" fill="#fb7185"/>
  <path d="M278 356v64m122-64v64m122-64v64" fill="none" stroke="#fed7aa" stroke-linecap="round" stroke-width="12"/>
  <path d="M224 392h110m66 0h110m66 0h110" fill="none" stroke="#fed7aa" stroke-linecap="round" stroke-width="12"/>
  <path d="M640 208c14 16 22 36 22 58" fill="none" stroke="#fff" stroke-linecap="round" stroke-width="10" opacity="0.7"/>
</svg>
