<svg xmlns="http://www.w3.org/2000/svg" viewBox="0 0 800 520">
  <defs>
    <linearGradient id="bg" x1="0%" y1="0%" x2="100%" y2="100%">
      <stop offset="0%" stop-color="#1d4ed8"/>
      <stop offset="50%" stop-color="#0f766e"/>
      <stop offset="100%" stop-color="#fb7185"/>
    </linearGradient>
  </defs>
  <rect width="800" height="520" rx="36" fill="url(#bg)"/>
  <circle cx="130" cy="104" r="74" fill="#ffffff" opacity="0.08"/>
  <circle cx="658" cy="402" r="130" fill="#ffffff" opacity="0.08"/>
  <rect x="190" y="172" width="420" height="208" rx="40" fill="#1f2937"/>
  <rect x="228" y="196" width="344" height="150" rx="28" fill="#111827"/>
  <ellipse cx="400" cy="252" rx="144" ry="62" fill="#f97316"/>
  <ellipse cx="400" cy="264" rx="134" ry="50" fill="#fb7185"/>
  <path d="M312 252c18-20 44-24 64-8m52 10c14-17 38-22 58-12m-172 42c22-15 46-15 68 0m56 2c18-12 40-12 60 2" fill="none" stroke="#fde68a" stroke-linecap="round" stroke-width="12"/>
  <circle cx="340" cy="238" r="12" fill="#86efac"/>
  <circle cx="456" cy="226" r="14" fill="#fef08a"/>
  <circle cx="502" cy="274" r="10" fill="#fca5a5"/>
  <circle cx="298" cy="286" r="10" fill="#93c5fd"/>
  <rect x="206" y="356" width="22" height="54" rx="10" fill="#94a3b8"/>
  <rect x="572" y="356" width="22" height="54" rx="10" fill="#94a3b8"/>
  <path d="M320 178c0-26 16-48 36-60-6 18-5 38 4 60m58-18c0-34 20-58 46-74-8 24-7 47 4 74m68-8c0-23 13-41 30-54-5 16-4 34 4 54" fill="none" stroke="#ffffff" stroke-linecap="round" stroke-width="10" opacity="0.7"/>
</svg>
