<svg xmlns="http://www.w3.org/2000/svg" viewBox="0 0 800 520">
  <defs>
    <linearGradient id="bg" x1="0%" y1="0%" x2="100%" y2="100%">
      <stop offset="0%" stop-color="#1f2937"/>
      <stop offset="55%" stop-color="#475569"/>
      <stop offset="100%" stop-color="#f59e0b"/>
    </linearGradient>
  </defs>
  <rect width="800" height="520" rx="36" fill="url(#bg)"/>
  <circle cx="110" cy="100" r="72" fill="#fff" opacity="0.08"/>
  <circle cx="686" cy="418" r="122" fill="#fff" opacity="0.08"/>
  <rect x="168" y="162" width="464" height="232" rx="34" fill="#f8fafc"/>
  <rect x="202" y="188" width="396" height="40" rx="16" fill="#f97316"/>
  <rect x="222" y="254" width="110" height="106" rx="18" fill="#dbeafe"/>
  <rect x="352" y="254" width="96" height="106" rx="18" fill="#e2e8f0"/>
  <rect x="468" y="254" width="110" height="106" rx="18" fill="#dcfce7"/>
  <circle cx="290" cy="274" r="16" fill="#93c5fd"/>
  <path d="M400 248c34 0 62 28 62 62s-28 62-62 62-62-28-62-62 28-62 62-62z" fill="#fef3c7"/>
  <path d="M374 306h52m-52 32h52" fill="none" stroke="#f59e0b" stroke-linecap="round" stroke-width="12"/>
</svg>
