<svg xmlns="http://www.w3.org/2000/svg" viewBox="0 0 800 520">
  <defs>
    <linearGradient id="bg" x1="0%" y1="0%" x2="100%" y2="100%">
      <stop offset="0%" stop-color="#f472b6"/>
      <stop offset="55%" stop-color="#fb7185"/>
      <stop offset="100%" stop-color="#f59e0b"/>
    </linearGradient>
  </defs>
  <rect width="800" height="520" rx="36" fill="url(#bg)"/>
  <circle cx="118" cy="110" r="74" fill="#fff" opacity="0.1"/>
  <circle cx="674" cy="410" r="118" fill="#fff" opacity="0.1"/>
  <rect x="154" y="156" width="492" height="236" rx="36" fill="#fff1f2"/>
  <ellipse cx="400" cy="334" rx="164" ry="34" fill="#fbcfe8"/>
  <path d="M286 226h228l-24 102c-8 34-38 58-72 58h-36c-34 0-64-24-72-58z" fill="#ffffff"/>
  <path d="M300 236h200l-18 74c-7 29-32 50-61 50h-42c-29 0-54-21-61-50z" fill="#f9a8d4"/>
  <path d="M306 234c28-34 61-52 94-52 27 0 54 13 80 38 10 10 18 22 24 36" fill="none" stroke="#ffffff" stroke-linecap="round" stroke-width="14"/>
  <circle cx="334" cy="252" r="14" fill="#fde68a"/>
  <circle cx="394" cy="222" r="14" fill="#86efac"/>
  <circle cx="448" cy="244" r="14" fill="#fca5a5"/>
  <circle cx="378" cy="284" r="12" fill="#bfdbfe"/>
  <circle cx="438" cy="296" r="12" fill="#fcd34d"/>
  <path d="M522 190c16 8 28 20 38 36" fill="none" stroke="#fff" stroke-linecap="round" stroke-width="10" opacity="0.6"/>
</svg>
