<svg xmlns="http://www.w3.org/2000/svg" viewBox="0 0 800 520">
  <defs>
    <linearGradient id="bg" x1="0%" y1="0%" x2="100%" y2="100%">
      <stop offset="0%" stop-color="#7c3aed"/>
      <stop offset="55%" stop-color="#2563eb"/>
      <stop offset="100%" stop-color="#22c55e"/>
    </linearGradient>
  </defs>
  <rect width="800" height="520" rx="36" fill="url(#bg)"/>
  <circle cx="118" cy="98" r="72" fill="#ffffff" opacity="0.08"/>
  <circle cx="674" cy="414" r="124" fill="#ffffff" opacity="0.08"/>
  <ellipse cx="400" cy="316" rx="174" ry="74" fill="#f3f4f6"/>
  <path d="M252 290h296c-8 64-66 114-132 114h-32c-66 0-124-50-132-114z" fill="#ffffff"/>
  <path d="M280 262c36 20 84 26 132 26s94-9 136-26" fill="none" stroke="#f59e0b" stroke-width="16" stroke-linecap="round"/>
  <path d="M286 254c18-38 54-62 96-62 27 0 52 10 74 28 14-8 30-12 48-12 24 0 46 8 66 22" fill="none" stroke="#fde68a" stroke-width="14" stroke-linecap="round"/>
  <circle cx="318" cy="250" r="14" fill="#86efac"/>
  <circle cx="454" cy="234" r="14" fill="#fca5a5"/>
  <circle cx="512" cy="262" r="12" fill="#bfdbfe"/>
  <path d="M332 160v112m146-112v112" fill="none" stroke="#f8fafc" stroke-width="12" stroke-linecap="round"/>
  <path d="M316 162h40m90 0h48" fill="none" stroke="#f8fafc" stroke-width="12" stroke-linecap="round"/>
</svg>
