<svg xmlns="http://www.w3.org/2000/svg" viewBox="0 0 800 520">
  <defs>
    <linearGradient id="bg" x1="10%" y1="0%" x2="90%" y2="100%">
      <stop offset="0%" stop-color="#3f1d12"/>
      <stop offset="55%" stop-color="#7c2d12"/>
      <stop offset="100%" stop-color="#f59e0b"/>
    </linearGradient>
  </defs>
  <rect width="800" height="520" rx="36" fill="url(#bg)"/>
  <circle cx="112" cy="98" r="72" fill="#fff" opacity="0.08"/>
  <circle cx="678" cy="420" r="124" fill="#fff" opacity="0.08"/>
  <rect x="146" y="168" width="508" height="226" rx="32" fill="#fef3c7"/>
  <ellipse cx="400" cy="310" rx="180" ry="68" fill="#422006"/>
  <ellipse cx="400" cy="300" rx="180" ry="68" fill="#78350f"/>
  <path d="M262 282c28-18 74-22 116-10s77 12 108-8 70-19 96 8-2 71-46 91-100 20-136 20-69 23-112 6-61-83-26-107z" fill="#ef4444"/>
  <path d="M284 296c18 6 31 18 38 36m60-45c10 8 16 21 18 38m90-46c15 9 24 24 28 42" fill="none" stroke="#fbbf24" stroke-linecap="round" stroke-width="12"/>
  <path d="M290 214c0-26 18-48 42-58-8 18-7 39 6 58" fill="none" stroke="#fde68a" stroke-width="10" stroke-linecap="round" opacity="0.7"/>
  <path d="M400 200c0-36 22-62 54-78-10 26-8 51 6 78" fill="none" stroke="#fde68a" stroke-width="10" stroke-linecap="round" opacity="0.7"/>
  <path d="M514 214c0-28 17-51 40-63-7 18-6 39 5 63" fill="none" stroke="#fde68a" stroke-width="10" stroke-linecap="round" opacity="0.7"/>
</svg>
